<mxfile host="app.diagrams.net" modified="2024-02-05T12:38:38.403Z" agent="Mozilla/5.0 (Macintosh; Intel Mac OS X 10.15; rv:122.0) Gecko/20100101 Firefox/122.0" etag="Eh-IxebQPIUGfdqA6ZqX" version="23.1.0" type="github">
  <diagram name="Page-1" id="SRTtUVg9JtSP5koLgWRf">
    <mxGraphModel dx="2073" dy="595" grid="1" gridSize="10" guides="1" tooltips="1" connect="1" arrows="1" fold="1" page="1" pageScale="1" pageWidth="850" pageHeight="1100" math="0" shadow="0">
      <root>
        <mxCell id="0" />
        <mxCell id="1" parent="0" />
        <mxCell id="Skb-CcnJClif6XMlps8S-1" value="test" style="rounded=0;whiteSpace=wrap;html=1;" vertex="1" parent="1">
          <mxGeometry x="60" y="120" width="120" height="60" as="geometry" />
        </mxCell>
        <mxCell id="Skb-CcnJClif6XMlps8S-2" value="xxx" style="rounded=0;whiteSpace=wrap;html=1;" vertex="1" parent="1">
          <mxGeometry x="220" y="120" width="120" height="60" as="geometry" />
        </mxCell>
      </root>
    </mxGraphModel>
  </diagram>
</mxfile>
